<svg xmlns="http://www.w3.org/2000/svg" width="414.8" height="75.3"><path d="M138.3 24.92h-25.88c-6.7.12-12.05 5.63-11.96 12.34v25.62c-.11 6.71 5.25 12.24 11.96 12.36h25.88c6.71-.12 12.06-5.65 11.96-12.36V37.24C150.34 30.54 145 25.04 138.3 24.92zM142.69 40.69v18.98c.07 4.34-3.38 7.91-7.72 7.99h-19.23c-4.34-.08-7.79-3.66-7.72-7.99V40.69c-.07-4.34 3.38-7.91 7.72-7.99h19.23C139.3 32.78 142.76 36.36 142.69 40.69zM193.26 24.92h-26c-6.7.12-12.05 5.63-11.96 12.34v25.62c-.11 6.71 5.25 12.24 11.96 12.36h26c6.71-.12 12.06-5.65 11.96-12.36V37.24C205.3 30.54 199.96 25.04 193.26 24.92zM197.65 40.69v18.98c.07 4.34-3.38 7.91-7.72 7.99h-19.23c-4.31-.12-7.73-3.68-7.66-7.99V40.69c-.07-4.34 3.38-7.91 7.72-7.99h19.23C194.3 32.82 197.72 36.38 197.65 40.69zM302.63 24.92h-25.98c-6.7.12-12.05 5.63-11.96 12.34v25.62c-.09 6.7 5.25 12.22 11.96 12.34h25.98c6.7-.12 12.05-5.63 11.96-12.34V37.24C314.67 30.54 309.32 25.04 302.63 24.92zM307.02 40.69v18.98c.07 4.34-3.38 7.91-7.72 7.99h-19.23c-4.34-.08-7.79-3.66-7.72-7.99V40.69c-.07-4.34 3.38-7.91 7.72-7.99h19.23C303.63 32.78 307.09 36.36 307.02 40.69zM357.5 24.92h-25.98c-6.7.12-12.05 5.63-11.96 12.34v25.62c-.09 6.7 5.25 12.22 11.96 12.34h25.98c6.7-.12 12.05-5.63 11.96-12.34V37.24C369.54 30.54 364.2 25.04 357.5 24.92zM361.89 40.69v18.98c.07 4.34-3.38 7.91-7.72 7.99h-19.23c-4.34-.08-7.79-3.66-7.72-7.99V40.69c-.07-4.34 3.38-7.91 7.72-7.99h19.23C358.51 32.78 361.96 36.36 361.89 40.69L361.89 40.69zM83.13 24.92H57.15c-1.45.01-2.88.3-4.22.84V-.18h-7.59V62.9c-.09 6.7 5.25 12.22 11.96 12.34h25.83c6.71-.12 12.06-5.65 11.96-12.36V37.24C95.17 30.54 89.83 25.04 83.13 24.92zM87.52 40.69v18.98c.07 4.34-3.38 7.91-7.72 7.99H60.54c-4.34-.08-7.79-3.66-7.72-7.99V40.69c0-4.29 3.43-7.8 7.72-7.89h19.23C84.08 32.88 87.53 36.39 87.52 40.69zM247.99 25.15h-25.9c-1.45.01-2.88.3-4.22.84V.08h-7.59v75.25h7.59v-.67c0-3.04-.15-33.51-.15-33.74 0-4.29 3.43-7.8 7.72-7.89h19.23c4.34.08 7.79 3.66 7.72 7.99v34.38h7.66V37.57c.14-6.72-5.19-12.28-11.91-12.42C248.09 25.15 248.04 25.15 247.99 25.15z"/></svg>