<svg xmlns="http://www.w3.org/2000/svg" width="176" height="44" viewBox="504 126 176 44"><path fill="#0082C3" d="M504 126h176v44H504z"/><path d="M534.984 145.816c-.4-2.665-1.52-4.84-3.307-6.44-2.478-2.23-5.115-2.703-8.896-2.703h-8.13v22.616h8.93c3.345 0 5.585-.45 8.125-2.8 1.784-1.673 2.885-3.774 3.28-6.258v9.04h12.94v-4.958h-7.12v-4.1l6.165-.006v-4.863l-6.165.004v-3.697l7.12-.005v-4.977h-12.94v9.146zm-12.174 8.506h-2.337v-12.785h2.31c4.274 0 6.584 2.296 6.584 6.37 0 4.448-2.104 6.415-6.557 6.415zm43.472-3.756c-.854 1.352-2.714 3.49-5.525 3.456-4.575-.07-6.298-3.234-6.298-6.07 0-3.233 2.57-6.01 5.942-6.07 3.8-.08 6.63 3.563 6.63 3.563l2.97-4.795s-3.365-4.567-9.548-4.43c-9.312.212-12.02 8.008-12.02 11.623 0 7.613 5.858 11.416 10.65 11.875 6.886.672 10.66-3.833 10.66-3.833s-.044-.01.188-.016a405.38 405.38 0 0 1 5.058.015v3.39h5.603v-22.6h-6.088c-.003-.002-7.493 12.745-8.223 13.89zm8.822.59h-3l3-5.12v5.12zm6.701-9.086h4.522v17.22h5.816v-17.22h4.516v-5.407h-14.855m27.859 8.595h-5.986v-8.588h-5.817v22.62h5.817v-8.655h5.986v8.656h5.818v-22.62h-5.817m53.879.003v12.562l-8.742-12.562h-5.257v7.7c-.568-1.78-1.58-3.42-3.012-4.815-2.23-2.176-5.132-3.358-8.197-3.358-3.26 0-6.1 1.12-8.356 3.327-2.26 2.204-3.48 5.087-3.48 8.223 0 2.48.597 4.657 1.777 6.54h-5.23V136.68h-5.785v22.61h12.573v-3.02c2.25 2.318 5.118 3.506 8.47 3.506 3.194 0 6.23-1.248 8.458-3.55a11.392 11.392 0 0 0 2.784-4.695v7.76h5.826v-12.6l8.88 12.6h5.12v-22.615h-5.827zM638.3 154.142c-3.162 0-6.03-2.743-6.03-6.327 0-3.328 2.682-5.988 6.098-5.988 3.228 0 5.908 2.66 5.908 5.988 0 3.705-2.68 6.327-5.975 6.327z" fill="#FFF"/></svg>