<svg viewBox="0 0 26 20" xmlns="http://www.w3.org/2000/svg"><g fill="#c31532"><path d="m13 17.8c-6.51 0-10.86-3.42-10.86-7.8s4.35-7.8 10.86-7.8 10.86 3.42 10.86 7.8-4.35 7.8-10.86 7.8m11.65-10.62c-.41-1.24-.17-2.14-.87-3s-1.78-.65-2.78-1.26-1.22-1.58-2.2-1.92-1.79.22-3 .06-1.6-1.06-2.8-1.06c-1.19 0-1.38.77-2.76 1s-1.94-.36-3.05 0-1.19 1.24-2.19 1.92-2 .45-2.79 1.23-.46 1.79-.87 3-1.34 1.65-1.34 2.85.86 1.63 1.35 2.83.17 2.14.87 3 1.78.64 2.78 1.25 1.21 1.58 2.19 1.92 1.79-.22 3-.06 1.61 1.06 2.81 1.06c1.19 0 1.38-.77 2.76-1s1.94.4 3 .06 1.24-1.3 2.24-1.98 2-.45 2.79-1.23.46-1.79.87-3 1.34-1.67 1.34-2.85-.86-1.61-1.35-2.81"/><path d="m11.13 11.53h-.45a.11.11 0 0 0 -.11.1c-.14.89-.47 1.52-1.57 1.52-1.52 0-1.69-2-1.69-3.58 0-1 .32-3 1.64-3 1 0 1.38.57 1.55 1.5 0 .08.05.1.11.1h.45a.11.11 0 0 0 .11-.17v-2a.11.11 0 0 0 -.11-.12h-.46c-.06 0-.08 0-.11.09s-.1.21-.26.21a.89.89 0 0 1 -.36-.13 3 3 0 0 0 -1.21-.22c-2 0-3.51 1.54-3.51 4 0 2.07 1.24 4 3.52 4a7.76 7.76 0 0 0 1.71-.27.19.19 0 0 1 .18.13.1.1 0 0 0 .11.07h.46a.11.11 0 0 0 .11-.11v-2a.11.11 0 0 0 -.11-.12"/><path d="m12.34 10.7a.62.62 0 0 1 -.65-.69.89.89 0 0 1 .4-.72l.82 1.13a.75.75 0 0 1 -.56.28m.38-3.06c.21 0 .31.19.31.39a.69.69 0 0 1 -.42.64 1 1 0 0 1 -.26-.67.36.36 0 0 1 .36-.4m2.11 1.29h-.88c-.08 0-.1 0-.1.06a2.55 2.55 0 0 1 -.41.85l-.56-.8c.4-.18.84-.45.84-.89s-.42-.83-1-.83a1 1 0 0 0 -1.13 1 1.09 1.09 0 0 0 .26.67 1.28 1.28 0 0 0 -1 1.12c0 .67.61 1.06 1.34 1.06a1.62 1.62 0 0 0 1-.32 1 1 0 0 0 .81.19h.36a.1.1 0 0 0 .11-.07l.11-.26c0-.1 0-.09-.07-.09h-.16a.66.66 0 0 1 -.54-.3 2.81 2.81 0 0 0 .41-.5c.09-.13.22-.34.22-.34s.09-.15.19-.15h.12a.11.11 0 0 0 .11-.07l.04-.22c0-.11 0-.1-.07-.1"/><path d="m15.76 10.93 1.22-3 .92 3zm5.42 2.15h-.18a.45.45 0 0 1 -.53-.38l-2.29-6.7a.14.14 0 0 0 -.14-.1h-.9a.15.15 0 0 0 -.14.1l-2.8 6.73a.48.48 0 0 1 -.24.29.93.93 0 0 1 -.37.06h-.09a.11.11 0 0 0 -.11.11v.44a.11.11 0 0 0 .11.11h2.18a.11.11 0 0 0 .11-.12v-.42a.11.11 0 0 0 -.11-.11h-.24c-.2 0-.41 0-.41-.24a.73.73 0 0 1 .06-.26l.43-1.05h2.55c.12.33.31.94.31.94s.07.21.09.29a.45.45 0 0 1 0 .12c0 .1-.05.2-.26.2h-.21a.11.11 0 0 0 -.11.11v.44a.11.11 0 0 0 .11.11h3.23a.11.11 0 0 0 .11-.12v-.43a.11.11 0 0 0 -.11-.11"/></g></svg>