<?xml version="1.0" encoding="utf-8"?>
<!-- Generator: Adobe Illustrator 21.1.0, SVG Export Plug-In . SVG Version: 6.00 Build 0)  -->
<svg version="1.1" id="Ebene_1" xmlns="http://www.w3.org/2000/svg" xmlns:xlink="http://www.w3.org/1999/xlink" x="0px" y="0px"
	 viewBox="0 0 1823 384" style="enable-background:new 0 0 1823 384;" xml:space="preserve">
<path id="d" d="M1530.9,254.5c0-88.7,55.2-132.6,107.1-132.6c44.4,0,69.8,24.1,77.9,45.3V25.7h-39.6v-25H1789v350.6h33v25.5h-101
	v-51c-11.8,28.3-35.9,57.6-82.6,57.6C1580.9,383.3,1530.9,341.3,1530.9,254.5z M1718.2,251.7c0-61.8-26.4-91.5-56.6-91.5
	c-31.1,0-53.8,31.1-53.8,92.5c0,62.3,24.1,89.2,53.3,89.2C1690.8,341.8,1718.2,315.4,1718.2,251.7z"/>
<path id="e" d="M1250.6,253.6c0-80.2,52.8-131.6,126-131.6c63.7,0,114.2,40.6,114.2,118c0,4.7,0,9-0.5,14.2h-162.8
	c0.5,60.4,26.4,88.7,71.7,88.7c28.8,0,52.4-14.6,66.5-40.1l18.9,11.8c-17,38.2-51.4,68.9-105.2,68.9
	C1311.5,383.3,1250.6,341.8,1250.6,253.6z M1416.7,225.3c0.5-6.6,0.9-13.7,0.9-19.3c0-36.3-14.2-56.2-40.6-56.2
	c-29.3,0-47.2,23.1-49.5,77.4L1416.7,225.3z"/>
<path id="r" d="M1034.9,351.2V154h-33v-25.5h105.7l-5.2,88.2c8.5-41.1,34.4-94.8,83.5-94.8c25.5,0,49.1,14.2,49.1,44.4
	c0,26.4-20.8,42-42.5,42c-5.2,0-10.4-0.9-15.1-2.4l-13.7-40.1c-31.1,5.2-55.7,52.8-55.7,94.4v91.1h40.6v25.5h-146.7v-25.5H1034.9z"
	/>
<path id="i" d="M860.4,351.2V154h-33v-25.5h106.2v222.7h33v25.5H827.4v-25.5H860.4z M851,51.6c0-24.1,14.2-42.5,42-42.5
	c26.9,0,42,18.4,42,42.5c0,23.6-15.1,41.5-42,41.5C865.1,93.1,851,75.2,851,51.6z"/>
<path id="s" d="M580.6,364.9l11.3-77.4h18.4l21.2,61.3c10.9,6.6,24.1,8.5,35.9,8.5c33,0,51.4-11.8,51.4-37.3
	c0-24.5-17-35.4-46.7-44.8c-26.9-9-86.3-24.1-86.3-82.1c0-50,42.9-71.2,91.5-71.2c20.8,0,42.5,4.2,58.5,8.5l47.7-8.5l-9.4,82.6
	h-18.4l-17.5-48.1c-11.3-4.2-27.8-7.5-41.5-7.5c-22.6,0-40.1,9-40.1,31.6c0,26,23.6,31.1,56.6,42.5c49.1,17,77.4,36.8,77.4,79.7
	c0,59.5-51,80.7-110.9,80.7C642.4,383.3,608,375.3,580.6,364.9z"/>
<path id="e_1_" d="M306.9,253c0-80.2,52.8-131.6,126-131.6c63.7,0,114.2,40.6,114.2,118c0,4.7,0,9-0.5,14.2H383.8
	c0.5,60.4,26.4,88.7,71.7,88.7c28.8,0,52.4-14.6,66.5-40.1l18.9,11.8c-17,38.2-51.4,68.9-105.2,68.9
	C367.7,382.8,306.9,341.2,306.9,253z M473,224.7c0.5-6.6,0.9-13.7,0.9-19.3c0-36.3-14.2-56.2-40.6-56.2c-29.3,0-47.2,23.1-49.5,77.4
	L473,224.7z"/>
<path id="d_1_" d="M1,254.5c0-88.7,55.2-132.6,107.1-132.6c44.4,0,69.8,24.1,77.9,45.3V25.7h-39.6v-25h112.8v350.6h33v25.5h-101v-51
	c-11.8,28.3-35.9,57.6-82.6,57.6C51,383.3,1,341.3,1,254.5z M188.3,251.7c0-61.8-26.4-91.5-56.6-91.5c-31.1,0-53.8,31.1-53.8,92.5
	c0,62.3,24.1,89.2,53.3,89.2C160.9,341.8,188.3,315.4,188.3,251.7z"/>
</svg>
