<svg height="64" viewBox="0 0 1194 64" width="1194" xmlns="http://www.w3.org/2000/svg"><g fill="#1d1d1b"><path d="m40.6 52.7h-30.7v-41.8h28.7c13.4 0 22.4 8.6 22.4 21.3 0 12-8.5 20.5-20.4 20.5zm-2.8-50.8h-37.8v59.8h39.7c8.7 0 16.5-2.8 22.3-7.9 6.4-5.5 9.7-12.9 9.7-21.3 0-18.5-13-30.6-33.9-30.6z"/><path d="m153.8 31.7c0 13.4-10.9 22.6-28 22.6-17.2 0-28.2-9.2-28.2-22.6 0-13.1 11.5-22.6 28.2-22.6 7.5 0 14.3 2.1 19.1 5.6 5.9 4.4 8.9 10.1 8.9 17zm10.3 0c0-9.5-4.1-17.5-12.1-23.6-6.6-5-16-8.1-26.2-8.1s-19.6 3.1-26.3 8.1c-8.1 6.1-12.2 14-12.2 23.6 0 9.7 4 17.7 12.1 23.7 6.5 5 16 8 26.4 8s19.7-3 26.3-7.9c8-6 12-14 12-23.8z"/><path d="m227 29.9h-35.8v-19h34.9c8.3 0 12.4 3.2 12.4 9.8 0 5.9-4.1 9.2-11.5 9.2zm22.1 31.8-16-23.3c8.9-1.5 15.5-7.1 15.5-17.7 0-11.6-7.6-18.8-20.2-18.8h-47.2v59.8h9.9v-22.8h30.2l16.2 22.8z"/><path d="m332.5 31.7c0 13.4-10.9 22.6-28 22.6-17.2 0-28.2-9.2-28.2-22.6 0-13.1 11.5-22.6 28.2-22.6 7.5 0 14.3 2.1 19.1 5.6 6 4.4 8.9 10.1 8.9 17zm10.4 0c0-9.5-4.1-17.5-12.1-23.6-6.6-5-16-8.1-26.2-8.1s-19.6 3.1-26.3 8.1c-8.1 6.1-12.2 14-12.2 23.6 0 9.7 4 17.7 12.1 23.7 6.5 5 16 8 26.4 8s19.7-3 26.3-7.9c7.9-6 12-14 12-23.8z"/><path d="m389.9 10.9v50.8h-9.9v-50.8h-28.6v-9h67.1v9z"/><path d="m492.8 61.7v-26.5h-47.9v26.5h-9.9v-59.8h9.9v24.3h47.9v-24.3h9.9v59.8z"/><path d="m559.8 38.1v23.6h-9.9v-23.6l-32.7-36.2h12.3l25.4 27.9 25.3-27.9h12.3z"/><path d="m691.4 29.9h-35.8v-19h35.1c8.1 0 12.1 3.2 12.1 9.8.1 6-3.9 9.2-11.4 9.2zm1.8-28h-47.4v59.8h9.9v-22.8h35.6c14.2 0 21.8-6.5 21.8-18.3 0-11.3-7.7-18.7-19.9-18.7z"/><path d="m736 61.7v-59.8h60.3v9h-50.4v15.3h35v9h-35v17.5h52.7v9z"/><path d="m866 29.9h-35.8v-19h34.9c8.3 0 12.4 3.2 12.4 9.8 0 5.9-4 9.2-11.5 9.2zm22.2 31.8-16-23.3c8.9-1.5 15.5-7.1 15.5-17.7 0-11.6-7.6-18.8-20.2-18.8h-47.2v59.8h9.9v-22.8h30.2l16.2 22.8z"/><path d="m969 61.7-28.7-31.5-18 13.3v18.2h-9.9v-59.8h9.9v31l41.9-31h14.3l-30.6 22.6 33.9 37.2z"/><path d="m1000.8 61.7v-59.8h9.9v59.8z"/><path d="m1091.5 61.7-45.8-49.1v49.1h-9.9v-59.8h12.3l45.7 49.1v-49.1h9.9v59.8z"/><path d="m1156.5 9.2c-12.4 0-18.9 3.1-18.9 8.1 0 2.7 1.7 4.5 5.2 5.8 6.5 2.3 16.4 1.6 28.5 3.1 14.9 1.9 22 7 22 17 0 12.6-11.4 19.9-32.6 19.9-15.2 0-26.9-3.2-35.6-10.1l5.5-7.2c9.6 5.9 19.3 8.6 30.2 8.6 14.2 0 21.8-4.1 21.8-10.6 0-8.5-10.2-8.5-27.8-9.7-18.4-1.2-27.7-4.1-27.7-15.6 0-11.2 10.7-18.2 30.2-18.2 12.9 0 23.7 3 32.4 8.8l-6 6.7c-9-4.4-17.8-6.6-27.2-6.6z"/></g></svg>