<svg id="Layer_1" data-name="Layer 1" xmlns="http://www.w3.org/2000/svg" viewBox="0 0 155 44"><defs><style>.cls-1{fill:#fff;}.cls-2{fill:#0061af;}.cls-3{fill:#f58220;}.cls-4{fill:#72bf44;}.cls-5{fill:#ed145b;}</style></defs><title>Artboard 1</title><g id="Desktop-Search-Page"><g id="TRU_logo" data-name="TRU logo"><g id="TRULogo"><g id="TRU-Logo"><path id="Shape" class="cls-1" d="M152.56,23.06a12.28,12.28,0,0,0-2.83-3,4.3,4.3,0,0,0,1.07-.76c1.64-1.56,2.46-4.19,1-5.88-4-4.67-10.73-5.27-14.67-3.15a11,11,0,0,0-3.83,3.23A3.65,3.65,0,0,0,130,11.3a21.11,21.11,0,0,0-2.36.1,3.77,3.77,0,0,0-3.46,3.5,3.48,3.48,0,0,0-1.47-1.49,23.62,23.62,0,0,0-2.4-1l-1-.36h0a4,4,0,0,0-5.17,1.66,23.08,23.08,0,0,0-2.34,4.87c.31-4.28.37-7.42.38-7.71,0,0,0,.07,0,.1.19-3-.89-4.87-3.74-6.34C99.08-.2,90.24-.27,85.1,1.28A14.59,14.59,0,0,0,74.84,12.61c-4.46-2.55-8.57-2.29-11.39-.93A2.94,2.94,0,0,0,63,9.74,3.54,3.54,0,0,0,60.1,8.43c-1.64-.08-3.11-.09-3.83-.08h-.33a3.65,3.65,0,0,0-3.71,1.78l0,0c-.85,1.61-1.83,3.42-2.57,4.71L46,10.11,45.92,10l0-.05c-1-1.25-2.35-1.5-4.1-.8-1.22.49-3,1.25-4.13,1.84a3.36,3.36,0,0,0-1.92,2.1,2.78,2.78,0,0,0-.08.9,11.8,11.8,0,0,0-3.38-1,12.17,12.17,0,0,0-5.5.47,15.47,15.47,0,0,0-.84-4.4l0-.1a3.55,3.55,0,0,0-4.29-2.18A86.19,86.19,0,0,1,4,8.21C1.11,8.24.4,10,.23,10.74A40.86,40.86,0,0,0,.14,18c.45,3,3.2,2.95,4.1,2.93,1.35,0,2.29-.09,3.05-.13l.35,0A90.46,90.46,0,0,0,9.79,34.23v.06c.84,3.52,3.64,3.2,4.47,3,1-.22,4.46-1.2,5.76-1.7a3.09,3.09,0,0,0,2-2.87c0-.1,0-.21,0-.31a11.12,11.12,0,0,0,2.42,1.88,11.65,11.65,0,0,0,8.84,1.15,14.54,14.54,0,0,0,4.8-2.37,6.14,6.14,0,0,0,.83,1.24c.54.65,3.4,3.91,6.25,4.32a3.55,3.55,0,0,0,2.19-.32l.07,0c2.09-.89,5-4.54,8.78-10.82l.47-.8a6,6,0,0,0-.36,1.42,3.59,3.59,0,0,0,1.31,3.29l.22.2A15.12,15.12,0,0,0,68,36a12.24,12.24,0,0,0,4.4-.68A4.2,4.2,0,0,0,73.55,38l0,0c.34.38,3.36,3.73,5.92,4.86,3.39,1.5,5,1.23,7.64-1.29a45.52,45.52,0,0,0,6.25-8.57c-.14,1.41-.34,3.43-.41,4-.21,1.59-.33,3.25.77,4.52a4.5,4.5,0,0,0,3.51,1.32h.14c.2,0,4.89-.27,6.61-.52,3-.41,3.73-1.37,4.41-3.53l.16-.48a59.94,59.94,0,0,0,2.1-9.22,9.13,9.13,0,0,0,4.12,5.68,10.48,10.48,0,0,0,10.94-.34,13.16,13.16,0,0,0,3.86-3.53c.1.17.21.32.3.46l.08.12a15.62,15.62,0,0,0,11.34,5.8c2.18.16,6.26,0,9.18-2.69a10.68,10.68,0,0,0,3.11-5.48,8.11,8.11,0,0,0-1.06-6.09ZM88.33,11.83h0Z"/><g id="Group"><path id="Shape-2" data-name="Shape" class="cls-2" d="M107.49,6.61C99.12,2.27,90.86,1.81,85.72,3.36c-9.5,2.86-12.45,15-3.64,20.94.53.36.2,1.12-.47,2.32a20.57,20.57,0,0,1-5.06,6.6c-1.63,1.29-2.68,1.82-1.34,3.41,0,0,3,3.35,5.18,4.32,2.65,1.17,3.31,1,5.29-.88,1.24-1.17,3.7-4.35,6.67-9.44,1.54-2.64,3.6-2.69,3.32,1.66,0,0-.41,4.18-.52,5-.33,2.49-.07,3.35,2.15,3.38,0,0,4.77-.26,6.43-.5,2.33-.32,2.2-.7,2.82-2.54,3.26-9.86,3.53-26.78,3.53-26.78.14-2.27-.57-3.24-2.57-4.27m-6.11,9.12-3,2.1a1.5,1.5,0,0,0-.64,1.37c0,.4-.13,3.17-.14,3.53s-.17,1.43-1.38.37l-2.32-2A1.6,1.6,0,0,0,92,20.67l-3.16,1.27s-1.9.78-1.2-.94,1.15-3.06,1.3-3.5a1.71,1.71,0,0,0-.28-1.58c-.18-.21-1.69-2.22-2-2.72,0,0-1.25-1.49.83-1.39l3.6.09a1.32,1.32,0,0,0,1.2-.7c.58-.92,2.3-3.08,1.94-2.62.3-.38,1-1.32,1.45.24,0,0,.65,2.06,1,2.92A1.73,1.73,0,0,0,98,13.06l3.26,1.18s1.52.47.08,1.49"/><path id="Shape-3" data-name="Shape" class="cls-3" d="M38.81,19.72A9.41,9.41,0,0,0,32,15.15a9.64,9.64,0,0,0-9.36,4,9,9,0,0,0-1.37,7.4,9.26,9.26,0,0,0,11.46,6.86c4.31-1.29,6.73-3.82,7.38-7.75a8.91,8.91,0,0,0-1.26-5.9m-10.5,8.44c-1.21-.41-2.11-2.34-1.67-4.44s1.9-3.56,3.27-3.12C31.12,21,32,23,31.59,25.15s-1.9,3.48-3.28,3"/><path id="Shape-4" data-name="Shape" class="cls-4" d="M116,14.95a23.22,23.22,0,0,0-3.45,11.21,7.3,7.3,0,0,0,3.37,6.79,8.37,8.37,0,0,0,8.71-.35c6.32-3.76,7-13.23,6.85-17.5a1.54,1.54,0,0,0-1.58-1.62,18.72,18.72,0,0,0-2.08.09,1.64,1.64,0,0,0-1.51,1.76v.28c0,4-.31,7.49-2,9.66-1.12,1.43-2.47,2-3.35,1.63a2.39,2.39,0,0,1-1.17-2.48,17.44,17.44,0,0,1,2.15-6.21l.3-.59a1.68,1.68,0,0,0-.51-2.28c-.42-.22-1.33-.56-2.14-.86l-1-.36a1.89,1.89,0,0,0-2.56.82Z"/><path id="Shape-5" data-name="Shape" class="cls-5" d="M138.16,12.18a7.65,7.65,0,0,0-4.44,6.34c-.39,3.85,4.82,6.53,6.06,7.21,1.49.82,1.54,1.76,1.16,2.31-.61.88-2.3.63-3.55.13a7.45,7.45,0,0,1-3.19-2.52c-.66-.77-2.67,1.44-3,3-.14.71.13,1,.56,1.66,1.09,1.62,4.61,4.48,9.71,4.86,1.41.11,5.07.19,7.54-2.12a8.48,8.48,0,0,0,2.47-4.32,5.93,5.93,0,0,0-.75-4.47c-1.39-2.14-3.7-3.56-6.28-4.77-3.75-1.77-3-2.82-2.19-3.31s3.46-.13,5.55,1.86c1.06,1,3.26-2.13,2.34-3.2-3.34-3.9-9-4.26-12-2.65Z"/><path id="Shape-6" data-name="Shape" class="cls-4" d="M61.08,12.45c-2.09,6.8-11,22.36-14.49,23.85a1.54,1.54,0,0,1-1.1.2c-1.85-.26-4.15-2.67-4.89-3.56-.33-.4-1-1.3-.47-1.77,2.17-1.81,4.87-4.56,5-6.17a1.51,1.51,0,0,0-.2-.9c-.2-.28-5.85-8-6.42-8.86-1-1.41-1-1.74.11-2.29s2.76-1.28,4-1.76,1.37-.14,1.71.25l5.06,6.63a.64.64,0,0,0,1-.14c.64-.79,3.38-5.93,3.81-6.74s1.34-.65,2.17-.66,2.26,0,3.7.08,1.51.48,1.09,1.85Z"/><path id="Shape-7" data-name="Shape" class="cls-5" d="M63.62,14.07A6.69,6.69,0,0,0,60.2,19.9c-.07,3.37,4.42,5.61,5.55,6.11,1.35.6,1.55,1.33,1.3,1.88-.36.81-1.16,1-2.11.75-1.72-.37-3.05-1.93-4.41-2.71-.76-.44-1.89,1.07-2.06,2.44a1.43,1.43,0,0,0,.6,1.41,13.21,13.21,0,0,0,9,4c1.23.05,4.42-.19,6.41-2.37a6.6,6.6,0,0,0,1.84-3.68,5.89,5.89,0,0,0-1-3.83,9.08,9.08,0,0,0-4.29-3.21c-3.69-1.59-2.53-3.18-1.65-3.48s2.07-.06,4.25,1.31c1.19.74,2.76-2.17,1.78-2.91-4.9-3.68-9.38-3.17-11.87-1.56Z"/><path id="Shape-8" data-name="Shape" class="cls-5" d="M4,10.39a88.44,88.44,0,0,0,18-1.46c1.63-.28,1.77.56,2,1.1a14.63,14.63,0,0,1,.62,3.41c0,.6.26,1.47-.72,1.76C20.83,16.08,20,16.36,18,17c-.93.29-.88.69-.85,1.44A56.24,56.24,0,0,0,19.55,31c.39,1.28.57,2.2-.29,2.53-1.2.46-4.54,1.41-5.44,1.6-1.55.34-1.78-.85-1.92-1.45A88.86,88.86,0,0,1,9.8,20.57c-.06-1.06-.4-2.06-1.36-2s-2.1.15-4.25.19c-1.15,0-1.76,0-1.91-1.08a41.84,41.84,0,0,1,.06-6.41c.17-.73,1-.84,1.63-.85Z"/></g><path id="Shape-9" data-name="Shape" class="cls-1" d="M153.19,11.33a1.43,1.43,0,1,1-1.41,1.43,1.41,1.41,0,0,1,1.41-1.43Zm0,.23a1.21,1.21,0,0,0,0,2.42,1.21,1.21,0,0,0,0-2.42Zm-.27,2h-.25V12a2.55,2.55,0,0,1,.44,0,.84.84,0,0,1,.5.13.38.38,0,0,1,.15.33.4.4,0,0,1-.31.39h0c.14,0,.24.16.27.39a1.41,1.41,0,0,0,.1.39h-.27a1.23,1.23,0,0,1-.1-.4.3.3,0,0,0-.35-.28h-.18v.68Zm0-.88h.18c.22,0,.4-.08.4-.27s-.11-.28-.4-.28h-.18v.54Z"/></g></g></g></g></svg>