<?xml version="1.0" encoding="utf-8"?>
<!-- Generator: Adobe Illustrator 20.1.0, SVG Export Plug-In . SVG Version: 6.00 Build 0)  -->
<svg version="1.1" id="Layer_1" xmlns="http://www.w3.org/2000/svg" xmlns:xlink="http://www.w3.org/1999/xlink" x="0px" y="0px"
	 viewBox="0 0 123.513 22.625" style="enable-background:new 0 0 123.513 22.625;" xml:space="preserve">
<g>
	<g>
		<g>
			<path d="M19.214,20.41l0.04-7.477l-1.637-0.009l0.023-4.362l1.637,0.009l0.021-3.916l5.748,0.031l-0.021,3.916l1.637,0.009
				l-0.023,4.362l-1.637-0.009l-0.04,7.477L19.214,20.41z"/>
			<path d="M28.248,20.458l0.063-11.839l5.576,0.03l-0.009,1.66c0.5-0.677,1.056-1.183,1.668-1.52
				c0.612-0.336,1.289-0.503,2.029-0.499c0.115,0.001,0.2,0.003,0.258,0.007c0.057,0.004,0.109,0.01,0.154,0.018l-0.031,5.748
				c-0.32-0.177-0.613-0.308-0.88-0.394c-0.267-0.085-0.511-0.129-0.732-0.13c-0.733-0.004-1.301,0.192-1.704,0.586
				c-0.403,0.395-0.606,0.951-0.61,1.668l-0.025,4.695L28.248,20.458z"/>
			<path d="M47.862,20.563l0.01-1.786c-0.577,0.76-1.179,1.32-1.807,1.679c-0.628,0.359-1.32,0.537-2.075,0.533
				c-1.374-0.007-2.51-0.597-3.408-1.77c-0.898-1.173-1.343-2.679-1.333-4.519c0.01-1.924,0.459-3.469,1.347-4.636
				c0.888-1.167,2.042-1.747,3.462-1.739c0.733,0.004,1.398,0.166,1.996,0.486c0.597,0.32,1.15,0.813,1.658,1.48l0.008-1.569
				l5.508,0.029l-0.063,11.839L47.862,20.563z M44.756,14.592c-0.003,0.504,0.131,0.911,0.4,1.222
				c0.269,0.311,0.625,0.467,1.068,0.469c0.45,0.002,0.81-0.148,1.079-0.452c0.269-0.304,0.405-0.711,0.407-1.223
				c0.003-0.519-0.131-0.936-0.4-1.25c-0.269-0.314-0.625-0.473-1.068-0.475c-0.443-0.002-0.801,0.154-1.073,0.469
				C44.897,13.668,44.759,14.081,44.756,14.592z"/>
			<path d="M64.167,20.65l0.095-17.748l5.748,0.031l-0.095,17.748L64.167,20.65z"/>
			<path d="M85.857,15.785l-8.164-0.032l-0.001,0.183c-0.003,0.603,0.103,1.052,0.319,1.347c0.216,0.295,0.545,0.444,0.988,0.446
				c0.267,0.001,0.5-0.076,0.7-0.231c0.199-0.155,0.357-0.382,0.473-0.679l5.322,0.383c-0.473,1.28-1.279,2.264-2.42,2.953
				c-1.141,0.688-2.536,1.028-4.185,1.02c-0.916-0.005-1.772-0.149-2.568-0.432c-0.796-0.283-1.51-0.693-2.14-1.231
				c-0.707-0.622-1.249-1.339-1.626-2.15c-0.377-0.811-0.564-1.663-0.559-2.556c0.005-0.901,0.202-1.756,0.592-2.567
				c0.39-0.811,0.937-1.516,1.643-2.115c0.636-0.539,1.352-0.943,2.148-1.214c0.795-0.271,1.655-0.403,2.578-0.398
				c1.267,0.007,2.403,0.267,3.408,0.78c1.005,0.513,1.841,1.256,2.507,2.229c0.341,0.498,0.596,1.047,0.764,1.647
				c0.169,0.6,0.251,1.255,0.247,1.965c-0.001,0.183-0.004,0.321-0.008,0.412C85.871,15.637,85.865,15.717,85.857,15.785z
				 M77.753,13.166l2.599,0.025c-0.02-0.466-0.135-0.81-0.344-1.032c-0.209-0.222-0.519-0.335-0.931-0.337
				c-0.366-0.002-0.663,0.113-0.889,0.344C77.961,12.398,77.816,12.731,77.753,13.166z"/>
			<path d="M87.64,20.776l0.063-11.839l5.576,0.03l-0.009,1.66c0.5-0.677,1.056-1.183,1.668-1.52
				c0.612-0.336,1.289-0.503,2.029-0.499c0.115,0.001,0.2,0.003,0.258,0.007c0.057,0.004,0.109,0.01,0.154,0.018l-0.031,5.748
				c-0.32-0.177-0.613-0.308-0.88-0.394c-0.267-0.085-0.511-0.129-0.732-0.13c-0.733-0.004-1.301,0.192-1.704,0.586
				c-0.403,0.395-0.606,0.951-0.61,1.668l-0.025,4.695L87.64,20.776z"/>
		</g>
		<g>
			<path d="M15.179,13.411L7.33,15.656l0.05,0.176c0.165,0.58,0.392,0.982,0.682,1.205c0.29,0.223,0.647,0.274,1.073,0.153
				c0.257-0.073,0.459-0.212,0.608-0.417c0.148-0.205,0.236-0.466,0.265-0.784l5.218-1.116c-0.097,1.361-0.597,2.531-1.501,3.51
				c-0.904,0.979-2.149,1.695-3.735,2.146c-0.881,0.251-1.743,0.351-2.587,0.301c-0.844-0.05-1.643-0.245-2.399-0.585
				c-0.852-0.401-1.572-0.938-2.161-1.612c-0.589-0.674-1.005-1.44-1.249-2.299c-0.246-0.866-0.296-1.743-0.147-2.631
				c0.148-0.887,0.478-1.717,0.988-2.489C2.897,10.52,3.471,9.932,4.16,9.451c0.688-0.482,1.477-0.849,2.365-1.101
				c1.219-0.347,2.382-0.414,3.49-0.201c1.108,0.213,2.118,0.693,3.029,1.442c0.466,0.383,0.864,0.84,1.193,1.369
				c0.329,0.53,0.591,1.135,0.785,1.818c0.05,0.176,0.086,0.309,0.107,0.398C15.151,13.264,15.167,13.343,15.179,13.411z
				 M6.666,13.154l2.503-0.7c-0.149-0.441-0.355-0.74-0.618-0.896c-0.263-0.155-0.592-0.177-0.988-0.064
				c-0.352,0.1-0.605,0.293-0.758,0.579C6.652,12.359,6.605,12.719,6.666,13.154z"/>
		</g>
		<g>
			<rect x="52.691" y="11.827" transform="matrix(0.0053 -1 1 0.0053 43.5972 73.2324)" width="11.84" height="5.748"/>
			<ellipse style="fill:#FCD700;" cx="58.637" cy="5.008" rx="3.361" ry="3.184"/>
		</g>
	</g>
</g>
<path d="M98.603,19.585l0.168,0.001c0.082,0,0.139,0.024,0.172,0.071c0.033,0.047,0.049,0.137,0.049,0.271l-0.004,0.755
	c-0.001,0.146-0.019,0.239-0.056,0.282c-0.037,0.042-0.149,0.063-0.337,0.062l-0.832-0.004c-0.082,0-0.139-0.025-0.172-0.074
	c-0.033-0.049-0.049-0.14-0.049-0.273l0.004-0.755c0.001-0.142,0.019-0.235,0.056-0.277c0.037-0.042,0.149-0.063,0.337-0.062
	L98.603,19.585z"/>
<path d="M104.152,17.841l-2.588-0.014l-0.013,2.46l2.588,0.014l0.004-0.837l0.968,0.201l-0.002,0.464
	c-0.002,0.358-0.075,0.602-0.218,0.733c-0.143,0.131-0.416,0.196-0.82,0.193l-2.46-0.013c-0.397-0.002-0.667-0.069-0.809-0.2
	c-0.142-0.131-0.212-0.377-0.21-0.738l0.011-2.078c0.002-0.358,0.074-0.601,0.215-0.731c0.142-0.13,0.413-0.193,0.813-0.191
	l2.46,0.013c0.406,0.002,0.679,0.069,0.82,0.2c0.14,0.131,0.209,0.376,0.208,0.733l-0.002,0.382l-0.969,0.136L104.152,17.841z"/>
<path d="M106.602,18.059c0.002-0.358,0.073-0.601,0.213-0.731c0.14-0.13,0.412-0.193,0.815-0.191l3.047,0.016
	c0.406,0.002,0.678,0.069,0.815,0.2c0.137,0.131,0.205,0.376,0.203,0.733l-0.011,2.078c-0.002,0.361-0.074,0.606-0.215,0.736
	c-0.142,0.13-0.413,0.193-0.813,0.191l-3.047-0.016c-0.403-0.002-0.674-0.069-0.813-0.2c-0.139-0.131-0.207-0.377-0.205-0.738
	L106.602,18.059z M107.549,20.32l3.174,0.017l0.013-2.46l-3.174-0.017L107.549,20.32z"/>
<path d="M113.339,21.106l0.021-3.938l0.769,0.004l1.916,2.348l1.932-2.327l0.773,0.004l-0.021,3.938l-0.891-0.005l0.014-2.711
	l-1.772,2.228l-0.186-0.001l-1.771-2.183l-0.014,2.647L113.339,21.106z"/>
<g>
	<path d="M122.163,20.106c0,0.188-0.048,0.365-0.142,0.53c-0.095,0.164-0.224,0.294-0.389,0.388
		c-0.164,0.095-0.341,0.142-0.529,0.142c-0.192,0-0.371-0.049-0.537-0.147c-0.165-0.098-0.294-0.229-0.385-0.391
		c-0.092-0.163-0.138-0.337-0.138-0.521c0-0.188,0.048-0.364,0.143-0.528s0.225-0.294,0.389-0.389s0.34-0.142,0.528-0.142
		c0.189,0,0.366,0.048,0.531,0.143c0.164,0.096,0.294,0.225,0.388,0.388S122.163,19.916,122.163,20.106z M122.028,20.106
		c0-0.165-0.041-0.317-0.123-0.459c-0.082-0.141-0.195-0.253-0.338-0.336c-0.144-0.083-0.298-0.125-0.464-0.125
		c-0.164,0-0.317,0.042-0.46,0.124c-0.143,0.083-0.255,0.195-0.337,0.338s-0.123,0.295-0.123,0.458c0,0.165,0.041,0.319,0.124,0.462
		c0.082,0.143,0.194,0.255,0.336,0.337s0.295,0.123,0.46,0.123s0.319-0.041,0.463-0.123s0.257-0.194,0.339-0.337
		S122.028,20.271,122.028,20.106z M121.397,20.718l-0.291-0.492h-0.236v0.492h-0.186v-1.217h0.449c0.139,0,0.245,0.03,0.319,0.092
		c0.073,0.062,0.11,0.146,0.11,0.255c0,0.1-0.025,0.18-0.076,0.24c-0.051,0.06-0.118,0.099-0.201,0.117l0.324,0.513H121.397z
		 M121.378,19.851c0-0.067-0.023-0.118-0.07-0.153c-0.046-0.035-0.109-0.053-0.188-0.053h-0.25v0.44h0.268
		c0.077,0,0.137-0.021,0.178-0.062C121.356,19.982,121.378,19.924,121.378,19.851z"/>
</g>
</svg>
