<svg xmlns="http://www.w3.org/2000/svg" viewBox="0 0 619.3 51.4"><title>Asset 1</title><g id="Layer_2" data-name="Layer 2"><g id="Layer_1-2" data-name="Layer 1"><polygon points="31.7 1 31.7 22.2 6.4 22.2 6.4 1 0 1 0 50.4 6.4 50.4 6.4 28.2 31.7 28.2 31.7 50.4 38.2 50.4 38.2 1 31.7 1"/><path d="M73.1,45.2c-9.3,0-18.9-7.2-18.9-19.6C54.2,12.9,64,6.2,73.1,6.2c9.6,0,19.4,6.5,19.4,19.4A19.235,19.235,0,0,1,73.1,45.2M73.1,0C56.3,0,47.3,13.2,47.3,25.6c0,12.7,9.5,25.8,25.8,25.8,17,0,26.1-13.4,26.1-25.8S90.1,0,73.1,0"/><path d="M147.2,1V29.9c0,10.3-5.2,20.9-19.4,20.9s-19.4-10.6-19.4-20.9V1h6.4V29.9c0,9.3,4.9,15,13.2,15,3.6,0,12.6-1.3,12.6-15V1h6.6"/><polygon points="226.5 1 226.5 7.2 207.4 7.2 207.4 22.5 222.4 22.5 222.4 28.4 207.4 28.4 207.4 44.2 226.5 44.2 226.5 50.4 200.7 50.4 200.7 1 226.5 1"/><polygon points="346.1 1 346.1 7.2 325.2 7.2 325.2 22.5 341.8 22.5 341.8 28.4 325.2 28.4 325.2 50.4 318.8 50.4 318.8 1 346.1 1"/><path d="M429.8,25.1h-7V6.7h7.5c7,0,10.9,3.6,10.9,9.8,0,5.5-4.1,8.6-11.4,8.6m8.6,4.3.3-.3c5.7-2.3,9-7.2,9-12.7C447.7,6.1,441.2.9,428.8.9H416.4V50.2h6.5V30.7h9.5s9.1,19.1,9.3,19.6h8c-.7-1-11.3-20.9-11.3-20.9"/><path d="M470.2,33.1l8.5-24.5.5-1,8.5,25.6H470.2ZM483.1,1h-7.5c-.3.5-18.6,48.3-18.9,49.3h7.2c0-.5,4.4-11.4,4.4-11.4h21.4s4.1,10.8,4.4,11.4h7.2c-.4-1-18-48.7-18.2-49.3"/><polygon points="405.8 1 405.8 7.2 384.6 7.2 384.6 22.5 401.2 22.5 401.2 28.4 384.6 28.4 384.6 50.4 378.2 50.4 378.2 1 405.8 1"/><path d="M282.1,45.2A19.124,19.124,0,0,1,263,25.6c0-12.7,9.8-19.4,19.1-19.4,9.6,0,19.1,6.7,19.1,19.4,0,12.9-9.8,19.6-19.1,19.6m0-45.2C265.3,0,256,13.2,256,25.6a25.706,25.706,0,0,0,26.1,25.8c17,0,26.1-13.4,26.1-25.8S299.1,0,282.1,0"/><polygon points="575.3 1 575.3 7.2 556.2 7.2 556.2 22.5 571.2 22.5 571.2 28.4 556.2 28.4 556.2 44.4 575.3 44.4 575.3 50.4 549.7 50.4 549.7 1 575.3 1"/><path d="M599.4,25.3,593,25h-.5V7H600c7,0,10.8,3.4,10.8,9.6,0,3.3-1.6,8.7-11.4,8.7m8.5,4.1h.3c5.7-2.6,9-7.5,9-12.9C617.2,6.2,610.7,1,598.3,1H585.9V50.3h6.5V31H602s9,18.9,9.3,19.4h8c-.5-1.1-11.4-21-11.4-21"/><path d="M183.7,37.2c0-5.4-5.7-7.2-11.6-9.3-6.7-2.6-13.9-4.9-13.9-13.2C158.2.7,171.9,0,174.7,0a34.594,34.594,0,0,1,14.2,3.1,51.2,51.2,0,0,0-1.5,6.2A23.817,23.817,0,0,0,175,5.7c-7,0-10.1,4.1-10.1,8,0,5.2,5.2,6.7,10.8,8.5,7,2.3,14.7,4.6,14.7,14.5,0,8.5-7,14.5-16.8,14.5-8.3,0-15.5-4.1-16.8-4.9.3-.2,1.8-5.2,2.1-5.9a27.366,27.366,0,0,0,15.5,5.2c6.7-.1,9.3-4.5,9.3-8.4"/><path d="M532.7,37.2c0-5.4-5.7-7.2-11.6-9.3-6.7-2.6-13.9-4.9-13.9-13.2C507.2.7,520.9,0,523.7,0a34.594,34.594,0,0,1,14.2,3.1,51.2,51.2,0,0,0-1.5,6.2A23.472,23.472,0,0,0,524,5.7c-7,0-10.1,4.1-10.1,8,0,5.2,5.2,6.7,10.6,8.5,7.2,2.3,15,4.6,15,14.5,0,8.5-7,14.5-16.8,14.5-8.3,0-15.5-4.1-16.8-4.9.3-.2,1.8-5.2,2.1-5.9a27.366,27.366,0,0,0,15.5,5.2c6.6-.1,9.2-4.5,9.2-8.4"/></g></g></svg>