<svg xmlns="http://www.w3.org/2000/svg" width="553" height="60"><path fill-rule="evenodd" d="M525.097 29.622c-4.098-4.587-8.976-10.129-12.684-14.525h-.195c.195 4.777.195 9.555.195 13.951v27.713h-6.829V4.013h4.878l24.001 26.372c3.318 3.633 8.196 9.174 11.708 13.38h.195c-.195-4.396-.195-8.984-.195-13.188V4.013h6.83v55.996l-27.904-30.387zM461.094 4.204h28.489v5.734h-21.465V27.52h17.953v5.733h-17.953v17.773h24.587v5.924h-31.611V4.204zm-41.564 0h6.83v46.822h24.392v5.924H419.53V4.204zm-41.758 0h6.83v46.822h24.391v5.924h-31.221V4.204zm-25.562 0h7.024V56.95h-7.024V4.204zm-24.392 26.947c-.195-4.014-.585-8.792-.78-12.995h-.196c-1.756 4.013-4.488 9.937-6.439 13.758l-14.049 27.903-14.635-27.903c-1.952-3.63-4.293-9.363-6.245-13.568h-.195c-.195 4.396-.39 9.174-.78 12.805l-2.147 25.61h-6.244l4.488-52.748h4.488l14.44 29.049c2.146 4.396 4.878 9.746 6.83 14.141h.195c1.951-4.395 4.488-9.555 6.829-14.141l14.44-28.858v-.191h4.293l4.488 52.748h-6.634l-2.147-25.61zM197.86 15.097h-.195c.195 4.777.195 9.555.195 13.951v27.713h-6.83V4.013h4.879l24.001 26.372c3.317 3.633 8.195 9.174 11.708 13.38h.195c-.195-4.396-.195-8.984-.195-13.188V4.013h6.829v55.996l-27.904-30.387c-4.097-4.587-8.976-10.129-12.683-14.525zM148.296 4.204h28.49v5.734h-21.66V27.52h17.952v5.733h-17.952v17.773h24.586v5.924h-31.416V4.204zM129.954 56.95l-17.367-23.697h-7.415V56.95h-6.83V4.204h15.611c7.805 0 16.001 4.967 16.001 14.524 0 6.88-4.488 11.468-10.147 13.569l18.732 24.653h-8.585zm-7.22-38.222c0-5.733-4.683-8.79-10.147-8.79h-7.415V27.52h7.61c5.269 0 9.952-3.06 9.952-8.792zm-46.051 24.08H54.828L48.974 56.95h-6.83L65.95-.001 89.756 56.95h-7.024l-6.049-14.142zm-8.391-20.066a167.67 167.67 0 0 1-2.537-7.453h-.195c-.585 2.483-1.756 5.352-2.537 7.453l-5.854 14.524h17.172l-6.049-14.524zM29.07 56.95L7.02 31.725h-.195V56.95H-.004V4.204h6.829V29.24h.195L29.265 4.204h7.806l-23.026 25.8L38.046 56.95H29.07z"/></svg>