<svg xmlns="http://www.w3.org/2000/svg" width="210" height="51.969" viewBox="0 0 210 51.969">
  <defs>
    <style>
      .cls-1 {
        fill: #ff49a7;
        fill-rule: evenodd;
      }
    </style>
  </defs>
  <path id="logo" class="cls-1" d="M871.357,66.637a22.736,22.736,0,0,1-5.1-2.327c-0.49-.269-0.688-0.22-0.688.215a4.233,4.233,0,0,0,1.862,2.386c1.994,1.352,5.857,3.3,12.547,3.249,9.174-.054,14.417-4,15.037-8.932,0.344-3.308-2.072-6.558-6.353-8.456,5.456-1.787,9.385-5.309,9.527-9.912,0.2-7.26-8.348-13.275-21.314-13.81-11.586-.492-17.926,3.68-19.862,7.363-2.761,5.255.62,9.044,5.929,9.917a9.075,9.075,0,0,0,4.76-.167c0.484-.216.419-0.538-0.136-0.6-6.966-1.028-10.622-4.5-8.895-8.174,1.511-3.255,8-6.07,17.515-5.855,9.791,0.221,19.59,4.493,19.932,11.107,0.272,5.145-6,7.854-11.385,8.879a25.171,25.171,0,0,0-4.271-.483c-1.864-.055-4.347.16-5.375,1.027-1.108.924-.625,1.571,1.1,1.791a28.333,28.333,0,0,0,9.1-.22c4.69,1.139,8.351,3.847,7.928,7.526-0.544,4.716-7.51,6.777-13.1,6.716a32.792,32.792,0,0,1-6.42-.647c-1.792-10.835-1.3-25.836.354-33.8,0.06-.267.06-0.431-0.422-0.324a2.686,2.686,0,0,0-2,2.117c-1.93,6.821-2.277,20.038-1.309,29.19a3.111,3.111,0,0,0,1.036,2.22m30.2-5.251a8.227,8.227,0,0,1,.076-1.841c0.477-4.117,3.032-7.1,4.341-6.824C907.7,53.1,906.8,60.516,901.557,61.387Zm0.076,0.918c2.821-.163,6.277-1.9,7.237-5.094,0.689-2.326.138-4.278-2.071-5.52-2.688-1.518-6.546.757-7.857,6.606-1.18,5.147,2.067,8.015,4.271,8.72,4.211,1.3,8.207-.759,9.175-4.712a2.909,2.909,0,0,0,0-1.563c-0.071-.281-0.343-0.281-0.483.047-1.517,3.843-5.587,5.8-8.137,5.092C902.8,65.611,901.9,64.31,901.633,62.3ZM921.5,56.943c-0.354,6.065-3.316,9.535-5.039,9.264-1.237-.216-2.617-2.059-1.727-6.389,0.832-4.011,3.728-7.264,5.1-7C920.87,53.044,921.626,54.505,921.5,56.943Zm1.238-3.252a4.227,4.227,0,0,0-1.863-1.843c-2.826-1.35-6.757.874-8.553,6.556-1.651,5.311.483,8.074,3.1,8.83,3.451,1.029,5.314-.814,6.135-3.738a4.449,4.449,0,0,0,3.179,3.52c2.755,0.812,4.827-1.194,4.827-4.762a2.182,2.182,0,0,0-.554-1.683c-0.338-.272-0.338-0.111-0.338.058-0.56,3.189-2.625,5.142-3.52,4.98-1.583-.271-2.208-6.825-0.415-12.62,0.071-.269-0.07-0.38-0.413-0.329A2.388,2.388,0,0,0,922.733,53.691Zm19.722,7.051c-0.135-.281-0.408-0.226-0.549.1-1.174,2.976-4.973,6.5-8,5.313-1.517-.6-2.412-2.822-2.273-5.967,0.2-4.327,2.687-8.123,4.137-7.961,1.167,0.111,1.72,2.983.483,5.69-0.071.215,0,.215,0.413,0.215a3.048,3.048,0,0,0,2.554-3.25,4.278,4.278,0,0,0-2.761-3.633c-2.831-1.4-6.829,1.36-7.586,7.7-0.619,5.415,2,7.908,5.245,8.611a6.725,6.725,0,0,0,8.268-4.875A2.71,2.71,0,0,0,942.455,60.742Zm2.418,1.291c-0.343-8.175.347-19.661,1.657-25.4,0.07-.27.207-0.486-0.415-0.322a2.523,2.523,0,0,0-1.856,2.054c-1.794,6.123-2.555,19.446-1.871,26.815a2.884,2.884,0,0,0,2.414,2.765,0.469,0.469,0,0,0,.695-0.436,35.913,35.913,0,0,1,4.136-13.163c0.277-.435.418-0.211,0.483,0.162a40.507,40.507,0,0,0,.415,7.908c0.554,2.978,2.271,3.679,4.068,4.172,2.278,0.593,4.277-.763,4.137-4.657a1.615,1.615,0,0,0-.55-1.3c-0.136-.115-0.276-0.058-0.276.159-0.414,2.707-1.93,4.821-3.034,4.55-1.863-.433-1.928-6.12-1.863-10.075a3.223,3.223,0,0,0-1.38-3.035,1.756,1.756,0,0,0-2.69.492A35.791,35.791,0,0,0,944.873,62.033Zm29.312,4.6a22.7,22.7,0,0,1-5.1-2.327c-0.489-.269-0.689-0.22-0.689.215a4.246,4.246,0,0,0,1.862,2.386c2,1.352,5.859,3.3,12.544,3.249,9.177-.054,14.421-4,15.036-8.932,0.348-3.308-2.065-6.558-6.336-8.456,5.45-1.787,9.376-5.309,9.516-9.912,0.21-7.26-8.354-13.275-21.314-13.81-11.591-.492-17.932,3.68-19.867,7.363-2.755,5.255.624,9.044,5.938,9.917a9.069,9.069,0,0,0,4.756-.167c0.484-.216.418-0.538-0.141-0.6-6.967-1.028-10.619-4.5-8.9-8.174,1.521-3.255,8-6.07,17.52-5.855,9.792,0.221,19.583,4.493,19.934,11.107,0.277,5.145-6,7.854-11.381,8.879a25.232,25.232,0,0,0-4.276-.483c-1.865-.055-4.347.16-5.385,1.027-1.1.924-.615,1.571,1.108,1.791a28.361,28.361,0,0,0,9.107-.22c4.686,1.139,8.343,3.847,7.93,7.526-0.554,4.716-7.517,6.777-13.1,6.716a32.819,32.819,0,0,1-6.421-.647c-1.789-10.835-1.305-25.836.352-33.8,0.065-.267.065-0.431-0.417-0.324a2.667,2.667,0,0,0-2,2.117c-1.928,6.821-2.277,20.038-1.31,29.19A3.109,3.109,0,0,0,974.185,66.637ZM1010.6,64.2a4.551,4.551,0,0,0,2.83,2.927c2.48,0.7,4.69-.648,4.75-4.713a3.232,3.232,0,0,0-.48-1.671c-0.2-.281-0.41-0.281-0.41.1-0.49,2.815-1.86,4.929-2.83,4.929-2.49,0-2.14-7.638-1.18-13.543,0.07-.266.07-0.484-0.47-0.382a2.152,2.152,0,0,0-2.14,1.9c-0.21.863-.55,3.684-0.97,6.769-0.55,3.848-1.72,5.474-2.69,5.474a1.862,1.862,0,0,1-1.86-1.357c-1.31-2.761-.76-9.584.14-13.11,0.07-.374,0-0.374-0.49-0.323a2.487,2.487,0,0,0-1.93,1.791c-1.65,4.928-1.79,11.482.63,13.866a3.843,3.843,0,0,0,4.27.542A5.447,5.447,0,0,0,1010.6,64.2Zm9.73-1.843a55.875,55.875,0,0,1,.62-11.7c0.07-.324-0.07-0.43-0.56-0.324a2.1,2.1,0,0,0-1.79,1.681,51.436,51.436,0,0,0-.69,14.076c0.14,1.142,1.04,1.522,2.28,1.737,0.41,0.052.55,0,.62-0.482a36.194,36.194,0,0,1,4.27-12.787c0.28-.427.42-0.216,0.49,0.168a40.946,40.946,0,0,0,.41,7.9,4.692,4.692,0,0,0,4.07,4.178c2.28,0.543,4.34-1.031,4.14-4.932a2.077,2.077,0,0,0-.55-1.241c-0.14-.17-0.35-0.058-0.35.159-0.13,2.654-1.72,4.983-2.96,4.71-1.87-.373-1.94-6.065-1.87-10.02,0-1.347-.27-2.436-1.37-3.084-1.25-.7-1.94-0.492-2.7.537A34.849,34.849,0,0,0,1020.33,62.357Zm15.72,0a57.985,57.985,0,0,1,.62-11.7c0.06-.324-0.07-0.43-0.54-0.324a2.076,2.076,0,0,0-1.8,1.681,50.282,50.282,0,0,0-.69,14.076c0.13,1.142,1.03,1.522,2.27,1.737,0.41,0.052.55,0,.62-0.482a35.757,35.757,0,0,1,4.28-12.787c0.27-.427.41-0.216,0.48,0.168a41.036,41.036,0,0,0,.42,7.9,4.683,4.683,0,0,0,4.06,4.178c2.28,0.543,4.35-1.031,4.15-4.932a2.075,2.075,0,0,0-.56-1.241c-0.14-.17-0.35-0.058-0.35.159-0.13,2.654-1.71,4.983-2.96,4.71-1.86-.373-1.93-6.065-1.86-10.02a3.189,3.189,0,0,0-1.38-3.084,1.733,1.733,0,0,0-2.69.537A34.837,34.837,0,0,0,1036.05,62.357Zm21.11,2.438c0.06,2.332.21,4.768,0.47,7.152,0.42,3.845.14,6.124-1.37,6.933-2.01,1.086-5.24-.593-6.76-5.58-0.14-.487-0.55-0.433-0.76-0.1a4.157,4.157,0,0,0-.13,3.356c0.96,3.521,4.48,5.851,8.34,3.467,2.2-1.355,4-3.8,3.45-8.073a73.066,73.066,0,0,1,0-19.825c0-.218,0-0.376-0.55-0.274a2.456,2.456,0,0,0-2.08,1.952,56.718,56.718,0,0,0-.96,6.716c-0.49,3.848-1.51,5.474-2.62,5.641-0.69.1-1.38-.438-1.94-1.524-1.44-2.813-.82-9.584.07-13.11,0.07-.374,0-0.374-0.47-0.323a2.289,2.289,0,0,0-1.8,1.733c-1.52,5.09-1.73,11.431.62,13.924a3.354,3.354,0,0,0,4.07.542A5.7,5.7,0,0,0,1057.16,64.794Zm5.73-15.592a4.14,4.14,0,0,1,.67-0.052,1.107,1.107,0,0,1,.77.216,0.688,0.688,0,0,1,.21.514,0.722,0.722,0,0,1-.5.684v0.011a0.657,0.657,0,0,1,.38.54,5.345,5.345,0,0,0,.21.742h-0.35a2.8,2.8,0,0,1-.18-0.646,0.519,0.519,0,0,0-.54-0.52h-0.32v1.165h-0.35V49.2Zm0.35,1.226h0.35a0.524,0.524,0,0,0,.6-0.51,0.5,0.5,0,0,0-.61-0.5,1.658,1.658,0,0,0-.34.028v0.984Zm0.46,2.412a2.3,2.3,0,1,1,2.3-2.3A2.292,2.292,0,0,1,1063.7,52.841Zm0-4.1a1.8,1.8,0,1,0,1.8,1.8A1.8,1.8,0,0,0,1063.7,48.738Z" transform="translate(-856 -29.031)"/>
</svg>
