<?xml version="1.0" encoding="utf-8"?>
<!-- Generator: Adobe Illustrator 20.0.0, SVG Export Plug-In . SVG Version: 6.00 Build 0)  -->
<svg version="1.1" id="Layer_1" xmlns="http://www.w3.org/2000/svg" xmlns:xlink="http://www.w3.org/1999/xlink" x="0px" y="0px"
	 viewBox="0 0 167.6 65" style="enable-background:new 0 0 167.6 65;" xml:space="preserve">
<style type="text/css">
	.st0{fill:#A7A9AC;}
	.st1{fill:#7561AA;}
	.st2{fill:#00AFDB;}
	.st3{fill:#7AC143;}
	.st4{fill:#F58220;}
	.st5{fill:#D60C8C;}
	.st6{fill:#EE3041;}
</style>
<g>
	<path class="st0" d="M78.5,49.8c1.1,0,2.7,0,3.7,0c0,0,0.1-1,0.1-1.3c0.1-0.5,0.5-0.7,0.9-0.5c0.3,0.2,0.5,0.5,0.5,0.8
		c0,0.2,0,0.8-0.1,1c0.2,0,0.4,0,0.5,0c0.5,0,0.8,0,0.9,0.5c0.2,0.6-0.1,0.7-0.7,0.6c-0.2,0-0.7-0.1-0.7-0.1c0,1,0,1.9,0.4,2.8
		c0.3,0.7,0.9,1.1,1.7,1.1c0.7,0,1.8-0.3,2.3-1c-0.1-1-0.3-2-0.4-3c-0.1-0.6,0-1.3,0.1-1.9c0.1-0.5,0.3-0.9,0.6-1.3
		c0.7-1,1.9-0.9,2.6,0.1c0.7,1,0.7,2.7,0,3.8c-0.5,0.7-0.9,1.5-1.3,2.2c1,1.2,3.5,1.2,4.9,0.1c-0.6-1-0.7-2-0.2-3.1
		c0.4-1,2-1.7,3-1.2c0.3,0.1,0.5,0.4,0.7,0.7c0.2,0.3,0.3,0.6,0.3,1c0,0.3-0.1,0.5-0.2,0.7c-0.2,0.4-0.4,0.8-0.7,1.1
		c-0.1,0.2-0.3,0.3-0.5,0.5c-0.1,0.1-0.2,0.1-0.2,0.2c0,0-0.4,0.3-0.4,0.3c0.9,0.5,1.8,0.7,2.7,0.5c0.5-0.1,0.7,0,0.8,0.4
		c0.2,0.5-0.1,0.9-0.7,0.9c-1.3,0-2.7-0.1-3.8-1c-1.1,0.6-2,0.9-3.2,1.1c-1.2,0.1-2.3-0.3-3.2-1c-0.9,0.8-1.9,1.2-3,1.2
		c-1,0.1-2-0.3-2.5-1.2c-0.2-0.3-0.3-0.6-0.5-1.2c-0.2,0.3-0.3,0.5-0.4,0.6c-0.8,1.1-1.8,1.7-3.2,1.6c-0.7,0-1.2-0.4-1.6-1
		c-0.2-0.2-0.3-0.5-0.5-0.8c-0.4,0.6-0.9,1.1-1.4,1.6c-0.5,0.4-1.2,0.7-1.9,0.6c-0.4,0-0.9-0.2-1.3-0.4c-0.4-0.3-0.7-0.7-0.9-1.2
		c0-0.1-0.1-0.1-0.2,0c-0.4,0.2-0.9,0.7-1.3,0.8c-1,0.6-2.1,0.8-3.3,0.4c-0.5-0.2-1.1-0.6-1.6-1.1c-0.4,0.8-1.4,1.3-2.5,1.7
		c-0.6,0.2-0.8,0.3-1,0c-0.3-0.3-0.1-0.7,0.3-0.9c0.5-0.3,1.1-0.5,1.6-0.9c0.8-0.5,1-0.9,1-0.9s-0.1-0.4-0.2-0.5
		c-0.7-1.8-0.5-3.8,0.2-5.4c0.1-0.1,0.1-0.3,0.2-0.4c0.3-0.5,0.8-0.7,1.4-0.6c0.6,0.1,0.9,0.5,1,1c0.1,0.6,0.1,1.2,0,1.9
		c-0.1,1.1-0.3,2-0.8,3c-0.1,0.2-0.4,1-0.4,1s0.5,0.9,1.3,0.9c1,0.1,1.9-0.2,2.7-0.8c0.4-0.3,0.6-0.7,0.7-1.2c0-0.2,0.1-0.5,0.1-0.7
		c0.1-0.4,0.3-0.6,0.7-0.5c0.4,0,0.8,0.2,0.8,0.6c0,0.4,0,0.8,0,1.2c0,0.7,0,1.4,0.7,1.8c0.6,0.3,1.2,0.1,1.8-0.4
		c0.4-0.3,0.7-0.8,1-1.2c0.5-0.7,0.7-1.7,0.9-2.6c-0.3,0-0.6,0-0.9,0c-0.3,0-0.5,0.1-0.8,0.1c-0.2,0-0.5,0-0.6-0.1
		c-0.2-0.2-0.3-0.5-0.1-0.8c0.1-0.1,0.2-0.1,0.4-0.2c0.6-0.2,2.3-0.3,2.3-0.3c0.1,0,0.1-1,0.2-1.1c0-0.2,0.1-0.5,0.3-0.6
		c0.1-0.1,0.3-0.1,0.4-0.1c0.2,0,0.3,0.2,0.4,0.3c0.1,0.3,0.2,0.5,0.2,0.8C78.6,49.1,78.5,49.7,78.5,49.8z M78.3,50.8
		c-0.1,0.9-0.3,1.7-0.2,2.5c0.1,1.1,0.7,1.6,1.9,1.3c1.4-0.4,2.2-2,2.1-3.7H78.3z M88.9,52.6c0.3-0.3,0.6-0.8,0.8-1.2
		c0.5-0.9,0.6-1.9,0.3-2.8c0-0.1-0.1-0.3-0.2-0.4c-0.1-0.1-0.2-0.1-0.3-0.1c-0.1,0-0.2,0.1-0.3,0.1c-0.4,0.3-0.5,0.8-0.6,1.3
		C88.5,50.5,88.7,51.6,88.9,52.6C88.9,52.6,88.9,52.6,88.9,52.6z M95.3,53.2c0.8-0.4,1.6-1.5,1.6-2.4c0-0.2,0-0.4-0.2-0.5
		c-0.1-0.1-0.2-0.1-0.3-0.1c-0.4,0-0.7,0.1-1,0.4C95,51,94.9,51.7,95,52.3C95.1,52.7,95.3,53.3,95.3,53.2z M65.5,48.6
		c-0.3,1.2-0.4,3.5,0,4.1c0.5-0.9,1-2.6,1-4C66.3,48,65.6,47.9,65.5,48.6z"/>
	<path class="st0" d="M50.8,55.4C50.8,55.4,50.8,55.4,50.8,55.4c0.5,0.4,1.1,0.7,1.7,0.5c0.3-0.1,0.5-0.2,0.7-0.4
		c0.2-0.1,0.3-0.4,0.5-0.5c0.1-0.1,0.3,0,0.4,0.1c0.7,0.5,0,1.3-0.5,1.6c-0.7,0.4-1.5,0.5-2.3,0.3c-0.4-0.1-0.7-0.2-1-0.4
		c-0.1-0.1-0.3-0.3-0.5-0.4c0,0-0.5,0.3-0.6,0.3c-0.4,0.2-2.7,0.9-4-0.1c-0.5-0.4-0.8-0.9-1-1.4c-0.2-0.5-0.3-1-0.5-1.5
		c-0.1-0.4-0.5-0.6-0.8-0.2c-0.3,0.3-0.5,0.7-0.7,1.1c-0.2,0.6-0.4,1.3-0.2,2c0.1,0.4-0.1,0.7-0.4,0.8c-0.4,0.1-0.8,0.1-1.1-0.3
		c-0.1-0.1-0.2-0.8-0.2-0.8c-0.4,0.5-1.2,1-1.6,1.1c-0.8,0.3-1.6,0.3-2.4,0.2C35.3,56.9,34,56,33.7,55c-0.3-0.8-0.2-1.6-0.2-2.5
		c-0.5-0.1-1.4,0-1.8-0.1c-0.3-0.1-0.4-0.4-0.3-0.7c0.1-0.3,0.4-0.4,0.8-0.4c0.5,0,0.7,0,1.3,0c0.1-0.6,0.1-1.1,0.2-1.6
		c0-0.2,0.2-0.4,0.3-0.5c0.3-0.1,0.9-0.1,1,0.2c0.1,0.3,0,1.6,0,1.9c0.6,0.1,1.5,0.3,1.7,0.4c0.3,0.1,0.4,0.4,0.3,0.7
		c-0.1,0.3-0.2,0.3-0.6,0.3c0,0-0.7,0-1.4,0c-0.2,1.1-0.1,1.8,0.4,2.6c0.4,0.6,1.4,0.8,2.1,0.8c1.1,0,1.5-0.2,2.3-1
		c0.2-0.2,0.5-0.5,0.5-0.8c-0.2-1.2-0.4-3.2-0.5-4.4c0-0.3,0-0.7,0.1-1.1c0.2-0.5,1-1,1.6-1c0.6,0,1.2,0.3,1.3,0.9
		c0.2,0.6,0,2.1-0.1,3.2c0-0.1,0.6-0.2,0.7-0.2c0.3,0,0.7,0.1,0.9,0.4c0.6,0.6,0.8,1.5,1.1,2.2c0.2,0.5,0.5,1,1,1.3
		c0.9,0.5,2.5,0,2.7-0.1l0.2-0.1c-0.1-0.2-0.4-0.6-0.5-0.9c-0.1-0.6-0.1-1,0.1-1.6c0.1-0.6,0.4-1.2,0.9-1.5c0.5-0.3,1.3-0.2,1.8,0
		c0.5,0.3,0.7,0.9,0.7,1.5C52.2,53.6,51.2,55.1,50.8,55.4z M41.2,52.9c0.5-0.8,0.9-3.4,0.6-4.1c-0.1-0.3-0.9-0.1-1,0.2
		C40.7,49.6,40.8,51.5,41.2,52.9z M50.1,54.8c0.7,0,1.7-2.6,1-2.8c-0.8-0.2-1,0.5-1.1,0.6C49.8,53.5,49.8,54.3,50.1,54.8z"/>
	<path class="st0" d="M22.4,53.6c-0.2-0.8-0.5-1.3-1.1-1.8c0,0,0,0,0,0c-0.1,0.3-0.2,0.5-0.3,0.7c-0.8,1.7-1.7,3.1-3.1,4.3
		c-1.2,1.1-2.4,0.9-3.4-0.2c-0.1-0.1-0.2-0.3-0.4-0.5c0,0-0.1,0-0.1,0c-0.4,0.4-0.7,0.8-1.2,1.2c-0.5,0.3-1.1,0.6-1.7,0.7
		c-0.7,0.1-1.5,0-2.2-0.3c-1.1-0.6-1.5-1.8-1.6-2.9c0-0.4,0-0.9,0-1.3c0-0.4-0.1-0.8,0.2-1.1C7.6,52.1,8,52,8.2,52.1
		c0.3,0.1,0.3,0.5,0.4,0.8c0.1,1.1-0.1,2.6,0.8,3.5c0.7,0.6,1.7,0.5,2.4,0c0.7-0.5,1.4-1.2,1.8-2c0.3-0.5,0.3-1,0.3-1.6
		c0,0,0-0.1-0.1-0.1c-0.4,0-0.7,0-1,0c-0.4,0-0.8-0.1-0.7-0.7c0.1-0.3,0.2-0.5,0.5-0.5c0.1,0,1.1-0.2,1.3-0.3
		c0.1-0.4,0.1-0.8,0.2-1.2c0.1-0.5,0.3-0.8,0.6-0.8c0.3,0,0.8,0.5,0.8,0.9c0,0.2,0,0.8,0,0.8s0.5,0,0.7,0c0.5,0,0.8,0.3,0.8,0.7
		c0,0.5-0.2,0.7-0.7,0.8c-0.3,0.1-0.6,0.1-1,0.2c0,0-0.1,0-0.1,0.1c0,0.9-0.1,2,0.2,2.9c0.1,0.4,0.4,0.7,0.8,0.7
		c0.3,0,0.6-0.2,0.8-0.5c0.3-0.2,0.5-0.5,0.7-0.7c0.7-0.8,1.4-1.9,2-2.9c0.3-0.5,0.4-1,0.7-1.5c0.3-0.5,0.8-0.6,1.1-0.2
		c0.6,0.8,1.2,1.5,1.5,2.5c0.1,0.2,0.2,0.8,0.2,0.8c0,0.1,0.3,0,0.3,0c0.2,0,0.4,0,0.6,0.1c0.2,0,0.4,0.1,0.5,0.3
		c0,0.1,0.1,0.2,0,0.3c0,0.1-0.1,0.2-0.2,0.3c-0.1,0.1-0.4,0.1-0.5,0.1c-0.2,0-0.6,0-0.6,0c0,0.5,0,1.1-0.1,1.4
		c-0.2,0.8-1,1.2-1.7,1.3c-0.6,0-1.3-0.4-1.5-1c-0.1-0.3-0.1-0.5-0.1-0.8c0-1.1,0.4-1.7,1.5-1.8C21.8,53.8,22.1,53.8,22.4,53.6
		C22.4,53.7,22.4,53.7,22.4,53.6z M22.6,54.8c0-0.1-0.1-0.1-0.2-0.1c-0.5-0.1-1,0-1.2,0.2c-0.3,0.3-0.1,1.3,0.2,1.4
		C22.1,56.4,22.7,55.7,22.6,54.8z"/>
	<path class="st0" d="M19.6,47.6c0,0.1,0,0.1,0,0.2c0,0.3-0.2,0.7-0.5,0.8c-0.6,0.1-0.5-0.5-0.5-0.9c0-0.3,0-0.6,0-1
		c0-0.3,0.1-0.5,0.4-0.5C19.5,46,19.6,47,19.6,47.6z"/>
	<path class="st0" d="M8.2,48.7c0.5,0,0.9,0.5,0.8,1c0,0.4-0.4,0.7-0.7,0.7c-0.5,0-1-0.6-0.9-1.1C7.4,48.9,7.8,48.6,8.2,48.7z"/>
	<path class="st0" d="M71.5,48.7c0.5,0,0.9,0.5,0.8,1c0,0.4-0.4,0.7-0.7,0.7c-0.5,0-1-0.6-0.9-1.1C70.7,48.9,71.1,48.6,71.5,48.7z"
		/>
	<path class="st0" d="M126.1,48.7c0.5,0,0.9,0.5,0.8,1c0,0.4-0.4,0.7-0.7,0.7c-0.5,0-1-0.6-0.9-1.1
		C125.3,48.9,125.6,48.6,126.1,48.7z"/>
	<path class="st0" d="M155.4,54.6c0,0.1-0.1,0.2-0.2,0.3c-0.1,0.1-0.4,0.1-0.5,0.1c-0.2,0-0.6,0-0.6,0c0,0.5,0,1.1,0,1.4
		c-0.2,0.8-1,1.2-1.7,1.3c-0.6,0-1.4-0.4-1.6-0.9c-0.1-0.3-0.1-0.6-0.1-0.8c0-1.1,0.4-1.7,1.5-1.8c0.1,0,0.5,0,0.8,0
		c0,0,0.1-0.1,0-0.1c-0.2-0.8-0.5-1.3-1.1-1.8c0,0-0.1-0.1-0.1,0c-0.1,0.3-0.2,0.5-0.3,0.7c-0.7,1.5-2,3-3.2,4.2l0,0
		c-0.1,0.2,0.1,2.4,0.1,3.3c0,1.5-0.1,3.9-2,4.2c-0.5,0.1-1.1,0-1.6-0.3c-0.4-0.2-0.8-0.6-1-1.1c-0.2-0.5-0.2-1-0.1-1.5
		c0.1-0.9,0.5-1.7,1-2.5c0.5-0.7,1.6-2.1,1.6-2.1s0.5-0.5,0.6-0.8l0-0.9c0.1,0.2-1.4,1-2,1c-0.5,0-1.1-0.1-1.5-0.5
		c-0.3-0.2-0.5-0.5-0.6-0.8c0-0.1-0.3-0.9-0.2-0.9c-0.8,0.5-1.5,1.2-2.3,1.7c-0.2,0.1-0.5,0.4-0.9,0.4c-0.5,0-1-0.2-1.4-0.7
		c-0.6-0.6-0.7-1.2-0.9-2.1c-0.1-0.3-0.2-0.8-0.2-1.1c-0.1-0.3-0.3-0.5-0.6-0.4c-0.9,0.2-1.6,1.1-1.9,2c-0.2,0.5-0.1,1.1-0.2,1.6
		c-0.1,0.4-0.2,0.6-0.6,0.6c-0.3,0-0.6-0.2-0.7-0.6c-0.1-0.3-0.1-0.6-0.1-0.9c0-0.4,0-1.2,0-1.6c0-0.2-0.1-0.4-0.3-0.5
		c-0.2-0.2-0.8,0.6-1,0.8c-0.4,0.6-0.5,0.9-1.5,2c-0.9,1-1.3,0.9-1.9,0.9c-0.4,0-0.9-0.2-1.3-0.4c-0.4-0.3-0.7-0.7-0.9-1.2
		c0-0.1-0.1-0.1-0.2,0c-0.4,0.2-0.8,0.7-1.2,0.9c-0.4,0.2-0.8,0.5-1.2,0.5c-0.4,0.1-0.8,0.1-1.2,0c-0.6-0.2-1-0.6-1.3-1
		c-0.4-0.4-0.6-0.8-0.8-1.3c-0.2-0.5-0.3-1-0.5-1.5c-0.1-0.4-0.5-0.6-0.8-0.2c-0.3,0.3-0.5,0.7-0.7,1.1c-0.2,0.6-0.4,1.3-0.2,2
		c0.1,0.4-0.1,0.7-0.4,0.8c-0.4,0.1-0.8,0.1-1.1-0.3c-0.1-0.1-0.2-0.8-0.2-0.8c-0.4,0.5-1.2,1-1.6,1.1c-0.8,0.3-1.6,0.3-2.4,0.2
		c-1.1-0.2-2.4-1.1-2.7-2.2c-0.3-0.8-0.2-1.6-0.2-2.5c-0.5-0.1-1.4,0-1.8-0.1c-0.3-0.1-0.4-0.4-0.3-0.7c0.1-0.3,0.4-0.4,0.8-0.4
		c0.5,0,0.7,0,1.3,0c0.1-0.6,0.1-1.1,0.2-1.6c0-0.2,0.2-0.4,0.3-0.5c0.3-0.1,0.9-0.1,1,0.2c0.1,0.3,0,1.6,0,1.9
		c0.6,0.1,1.5,0.3,1.7,0.4c0.3,0.1,0.4,0.4,0.3,0.7c-0.1,0.3-0.2,0.3-0.6,0.3c0,0-0.7,0-1.4,0c-0.2,1.1-0.1,1.8,0.4,2.6
		c0.4,0.6,1.4,0.8,2.1,0.8c1.1,0,1.5-0.2,2.3-1c0.2-0.2,0.5-0.5,0.5-0.8c-0.2-1.2-0.4-3.2-0.5-4.4c0-0.3,0-0.7,0.1-1.1
		c0.2-0.5,1-1,1.6-1c0.6,0,1.2,0.3,1.3,0.9c0.2,0.6,0,2.1-0.1,3.2c0-0.1,0.6-0.2,0.7-0.2c0.3,0,0.7,0.1,0.9,0.4
		c0.5,0.4,0.7,1,0.9,1.6c0.2,0.6,0.5,1.2,1,1.7c0.2,0.2,0.4,0.4,0.7,0.5c0.4,0.1,0.8,0,1.1-0.2c0.4-0.2,0.7-0.5,1-0.8
		c0.3-0.3,0.4-0.6,0.5-1c0-0.2,0.1-0.5,0.1-0.7c0.1-0.4,0.3-0.6,0.7-0.5c0.4,0,0.8,0.2,0.8,0.6c0,0.4,0,0.8,0,1.2
		c0,0.7,0,1.4,0.7,1.8c0.6,0.3,1.5,0,2.5-1.5c0.3-0.5,0.5-0.9,0.8-1.3c0.9-1.2,1.8-1.3,2.9-0.3c0.1,0,0.1,0.1,0.1,0.1
		c0.5-0.4,1-0.8,1.6-1.1c1.4-0.7,2.7,0.1,2.8,1.7c0.1,0.5,0.2,1,0.3,1.5c0,0.1,0.2,0.4,0.3,0.5c0.3,0.3,0.7,0.2,1,0
		c0.2-0.2,0.8-0.6,1.1-0.8c1.1-0.9,1.8-1.5,3.1-2.1c0.7-0.4,1.4-0.3,2.2,0c0.2,0.1,0.4,0.2,0.6,0.3c0.1,0,0,0,0.1,0
		c0.8-0.4,1.4,0,1.4,0.8c0,0.5,0,1-0.1,1.5c0,0.2,0,0.5,0,0.7l0,0.3c0.1-0.1,1.8-2.3,2.3-3.3c0.3-0.5,0.5-0.9,0.7-1.4
		c0.3-0.5,0.8-0.6,1.1-0.2c0.6,0.8,1.2,1.5,1.5,2.5c0.1,0.2,0.2,0.8,0.2,0.8c0,0.1,0.3,0,0.3,0.1c0.2,0,0.4,0,0.6,0.1
		c0.2,0,0.4,0.1,0.5,0.3C155.4,54.4,155.4,54.5,155.4,54.6z M117.5,47.8c-0.1-0.3-0.9-0.1-1,0.2c-0.1,0.6,0,2.5,0.4,3.9
		C117.4,51.1,117.8,48.5,117.5,47.8z M145.3,52.5c-0.4,0-1.3,0.4-1.5,0.8c-0.2,0.3-0.2,1,0,1.3c0.1,0.3,0.5,0.5,0.9,0.5
		c0.8,0,1.5-0.5,1.5-1.1C146.2,53.7,146.4,52.6,145.3,52.5z M147,58.3c-0.4,0.4-0.9,1.2-1.2,1.7c-0.5,0.8-0.9,1.6-0.7,2.6
		c0.1,0.6,0.8,1,1.3,0.5c0.3-0.2,0.5-0.6,0.6-0.9c0.2-0.7,0.2-0.9,0.3-1.6C147.3,60.1,147.1,58.3,147,58.3z M153.2,55.1
		c0-0.1-0.1-0.1-0.2-0.1c-0.5-0.1-1,0-1.2,0.2c-0.3,0.3-0.1,1.3,0.2,1.4C152.7,56.7,153.3,56,153.2,55.1z"/>
</g>
<g>
	<g>
		<g>
			<path class="st1" d="M23.4,20.6c-2.5,0-4.6,1.1-6.3,3.2l-0.3,0.4l-0.3-0.5c-1.1-2.1-2.7-3.1-5.1-3.1c-4.2,0-5.7,3.7-5.7,3.7V21
				H0.3v19.5h5.4c0-0.4,0-10.9,0-10.9c0-2.8,1.2-4.2,3.8-4.2c2.3,0,3.3,1.2,3.3,3.8c0,0,0,10.8,0,11.2h5.3c0-0.4,0-10.9,0-10.9
				c0-2.8,1.2-4.2,3.7-4.2c2.3,0,3.4,1.2,3.4,3.8c0,0,0,10.8,0,11.2h5.3c0-0.4,0-11.7,0-11.7C30.7,23.6,27.9,20.6,23.4,20.6z"/>
		</g>
		<g>
			<path class="st2" d="M82.9,25c1.5,0,2.9,0.8,3.8,2c0.3-0.3,3.5-3,3.8-3.3c-2-2.6-4.3-3.7-7.6-3.7c-5.9,0-10.2,4.3-10.2,10.3
				c0,6,4.3,10.4,10.2,10.4c3.2,0,5.4-1,7.5-3.3c-0.3-0.3-3.3-3.1-3.6-3.4c-0.9,0.9-2,1.8-3.9,1.8c-2.8,0-4.6-2.1-4.6-5.5
				C78.3,27.1,80.1,25,82.9,25z"/>
		</g>
		<g>
			<path class="st3" d="M104.2,20.6c-5.4,0-6.3,3.7-6.3,3.7s0-12.7,0-13.1h-5.4v29.3h5.4c0-0.4,0-10.9,0-10.9c0-2.6,1.5-4.2,4.2-4.2
				c2.3,0,3.6,1.3,3.6,3.8c0,0,0,10.8,0,11.3h5.4c0-0.4,0-11.7,0-11.7C111.1,23.8,108.4,20.6,104.2,20.6z"/>
		</g>
		<g>
			<path class="st1" d="M125.2,28.5c0,0,5.9-6.9,6.5-7.5h-5.8c-0.1,0.2-6.5,7.3-6.5,7.3V11.2h-5.4v29.3h5.4c0-0.4,0-6.3,0-6.3l2-2.1
				c0,0,4.8,8.2,4.9,8.4h6.2c-1.2-1.9-7-11.4-7.3-11.8L125.2,28.5z"/>
		</g>
		<g>
			<rect x="134.4" y="21" class="st4" width="5.4" height="19.5"/>
		</g>
		<g>
			<path class="st4" d="M33.1,21v11.1c0,4.9,4,8.9,8.9,8.9c4.9,0,8.9-4,8.9-8.9V21h-5.3v11.1c0,2-1.6,3.7-3.7,3.7
				c-2,0-3.7-1.6-3.7-3.7V21H33.1z"/>
		</g>
		<g>
			<path class="st5" d="M71.1,40.5V29.4c0-4.9-4-8.9-8.9-8.9c-4.9,0-8.9,4-8.9,8.9v11.1h5.3V29.4c0-2,1.6-3.7,3.7-3.7
				c2,0,3.7,1.6,3.7,3.7v11.1H71.1z"/>
		</g>
		<g>
			<path class="st5" d="M161.2,40.5V29.4c0-4.9-4-8.9-8.9-8.9c-4.9,0-8.9,4-8.9,8.9v11.1h5.3V29.4c0-2,1.6-3.7,3.7-3.7
				c2,0,3.7,1.6,3.7,3.7v11.1H161.2z"/>
		</g>
		<g>
			<path class="st6" d="M140.2,0.5c3.1,0,5.6,2.4,5.8,5.5c3,0.2,5.5,2.7,5.5,5.8c0,3.2-2.6,5.8-5.8,5.8l-2.6,0h-5.7l-3,0V6.3
				C134.4,3.1,137,0.5,140.2,0.5z M145.3,8.9H143V6.7l0,0c0-1.3-1.1-2.4-2.4-2.4c-1.3,0-2.4,1.1-2.4,2.4v2.2v4.9v0h4.9v0h2.2l0,0
				c1.3,0,2.4-1.1,2.4-2.4S146.6,8.9,145.3,8.9z"/>
		</g>
	</g>
	<g>
		<path class="st1" d="M164.8,40.7c-1.4,0-2.5-1-2.5-2.5c0-1.5,1.1-2.5,2.5-2.5c1.4,0,2.5,1,2.5,2.5
			C167.3,39.7,166.2,40.7,164.8,40.7z M164.8,36.1c-1.2,0-2.1,0.9-2.1,2.1c0,1.3,0.9,2.1,2.1,2.1c1.2,0,2.1-0.9,2.1-2.1
			C166.9,36.9,166,36.1,164.8,36.1z M165.3,38.4l0.6,1.2h-0.4l-0.6-1.1h-0.6v1.1h-0.4v-2.7h1.1c0.5,0,0.9,0.2,0.9,0.8
			C165.9,38,165.7,38.3,165.3,38.4z M165,37.1h-0.7V38h0.7c0.4,0,0.6-0.1,0.6-0.5C165.5,37.3,165.4,37.1,165,37.1z"/>
	</g>
</g>
</svg>
