<?xml version="1.0" encoding="utf-8"?>
<!-- Generator: Adobe Illustrator 21.0.2, SVG Export Plug-In . SVG Version: 6.00 Build 0)  -->
<svg version="1.1" id="Layer_1" xmlns="http://www.w3.org/2000/svg" xmlns:xlink="http://www.w3.org/1999/xlink" x="0px" y="0px"
	 viewBox="0 0 182 39" style="enable-background:new 0 0 182 39;" xml:space="preserve">
<style type="text/css">
	.st0{fill:#006AB1;}
</style>
<g>
	<path class="st0" d="M34.6,21.4v6.3c12.9,0.2,16.3-7.9,16.3-13.8c0-5.8-4.4-13.4-12.4-13.4h-5.3L26.4,7v20.9H33V6.8h4.2
		c3.6,0,6.6,2.3,6.6,7.3C43.9,19.1,40,21.4,34.6,21.4z"/>
	<polygon class="st0" points="0,18.2 0,27.5 17.9,9.6 17.9,18.2 11.7,18.2 5.7,24.1 18,24.1 18,27.8 24.7,27.8 24.7,0.3 18,0.3 	"/>
	<path class="st0" d="M73,15.2c-0.2,1.2-0.7,2.5-1.6,3.5v8.2c1.5-0.7,3.1-1.6,4.3-2.8c1.1-1.1,1.9-2.3,2.6-3.5L73,15.2z"/>
	<path class="st0" d="M75.8,4.1c-1.1-1.1-2.1-1.9-3.4-2.6L67,6.9c0,0,1.8,0.2,3.3,1.5l8.3,0C77.9,6.9,77,5.3,75.8,4.1z"/>
	<path class="st0" d="M60.6,27.2c1.6,0.6,3.5,1,5.2,0.9c1.5,0,2.9-0.3,4.3-0.7v-7.5c-1,0.7-2.4,1.3-3.7,1.4L60.6,27.2z"/>
	<path class="st0" d="M58.6,14.8l-5.9-5.8c-0.6,1.5-0.9,3.4-0.9,5.1c0,1.5,0.2,2.9,0.7,4.3h7.5C59.2,17.3,58.8,16.1,58.6,14.8z"/>
	<path class="st0" d="M59.4,26.6l5.3-5.3c-1.2-0.2-2.8-0.7-3.9-1.5l-7.8,0c0.7,1.5,1.6,3,2.9,4.3C57,25.1,58.1,25.9,59.4,26.6z"/>
	<path class="st0" d="M60.2,9.5l0-8.2c-1.5,0.6-3.1,1.6-4.3,2.9c-1.1,1.1-1.9,2.2-2.6,3.5l5.3,5.3C58.8,11.7,59.4,10.5,60.2,9.5z"/>
	<path class="st0" d="M71.2,0.9C69.6,0.3,67.6,0,65.9,0c-1.5,0-3.1,0.2-4.4,0.7l0,7.5c1-0.7,2.5-1.2,3.8-1.4L71.2,0.9z"/>
	<path class="st0" d="M73.1,13.3l6,5.7c0.6-1.6,0.8-3.2,0.8-5c0-1.5-0.2-2.9-0.7-4.3h-7.5C72.5,10.8,72.9,12,73.1,13.3z"/>
	<path class="st0" d="M175.6,0.5l-18.2,18.2V0.3l-11.3,11.3V0l-18.4,18.4V0.3l-6.3,0L102.7,19l-3-3.4c1.5-0.8,3.3-2.4,3.3-5.6
		c0-5.8-5.3-9.6-8.4-9.6c-3.1,0-6.9,0-6.9,0l-6.7,6.7v20.7h6.8V6.8h5c1.5,0,3.5,1.5,3.5,3.6c0,2.2-1.6,3.7-3.7,3.7l-3.1,0.3
		L103,27.8L120.8,10V18h-6l-6.3,6.3h12.4v3.5h7.1l11.4-11.4v11.3l11.2-11.2v11.6h7.1l17.9-17.9v8h-5.8l-6.1,6.1l11.9,0v3.3h6.4V0.5
		H175.6z"/>
	<polygon class="st0" points="3.2,37 3.2,37 1.6,30.9 0,30.9 0,38.6 1,38.6 1,31.9 1,31.9 2.7,38.6 3.7,38.6 5.4,31.9 5.4,31.9 
		5.4,38.6 6.4,38.6 6.4,30.9 4.7,30.9 	"/>
	<path class="st0" d="M12.5,30.7c-2.1,0-2.5,2.1-2.5,4c0,1.9,0.4,4,2.5,4c2.1,0,2.5-2.1,2.5-4C15,32.8,14.6,30.7,12.5,30.7z
		 M12.5,38c-1.3,0-1.5-1.5-1.5-3.2c0-1.8,0.2-3.2,1.5-3.2c1.3,0,1.5,1.5,1.5,3.2C14,36.5,13.8,38,12.5,38z"/>
	<path class="st0" d="M23.1,37.4L23,36.1c0-0.7-0.4-1.2-1.1-1.3v0c0.9-0.2,1.2-1.1,1.2-1.9c0-1.2-0.8-1.9-2-1.9h-2.5v7.7h1v-3.4h1.3
		c0.5,0,1.1,0.1,1.1,1.1l0.1,1.2c0,0.4,0.1,1,0.3,1.1h1.1C23.3,38.5,23.1,38.3,23.1,37.4z M20.5,34.4h-0.9v-2.7h1.1
		c0.9,0,1.4,0.5,1.4,1.2C22.1,34.4,21.1,34.4,20.5,34.4z"/>
	<polygon class="st0" points="27.8,35 30.6,35 30.6,34.2 27.8,34.2 27.8,31.7 30.8,31.7 30.8,30.9 26.8,30.9 26.8,38.6 30.9,38.6 
		30.9,37.8 27.8,37.8 	"/>
	<polygon class="st0" points="38.9,31.7 40.8,31.7 40.8,38.6 41.8,38.6 41.8,31.7 43.7,31.7 43.7,30.9 38.9,30.9 	"/>
	<polygon class="st0" points="50.6,34.1 48,34.1 48,30.9 47,30.9 47,38.6 48,38.6 48,34.9 50.6,34.9 50.6,38.6 51.6,38.6 51.6,30.9 
		50.6,30.9 	"/>
	<path class="st0" d="M57.1,30.9l-2.2,7.7h1l0.6-2.1h2.5l0.6,2.1h1l-2.1-7.7H57.1z M56.6,35.7l1.1-3.7h0l1,3.7H56.6z"/>
	<polygon class="st0" points="67.5,37.3 67.5,37.3 64.9,30.9 63.7,30.9 63.7,38.6 64.6,38.6 64.6,32.4 64.6,32.4 67.1,38.6 
		68.4,38.6 68.4,30.9 67.5,30.9 	"/>
	<path class="st0" d="M78.8,30.9l-2.2,7.7h1l0.6-2.1h2.5l0.6,2.1h1l-2.1-7.7H78.8z M78.3,35.7l1.1-3.7h0l1,3.7H78.3z"/>
	<path class="st0" d="M92.7,38c-1.3,0-1.5-1.5-1.5-3.2c0-1.8,0.2-3.2,1.5-3.2c1,0,1.3,0.7,1.3,1.6h1c0-1.5-0.7-2.4-2.3-2.4
		c-2.1,0-2.5,2.1-2.5,4c0,1.9,0.3,4,2.5,4c1.7,0,2.3-1.3,2.4-2.8h-1C94,36.9,93.8,38,92.7,38z"/>
	<path class="st0" d="M100,30.9l-2.2,7.7h1l0.6-2.1h2.5l0.6,2.1h1l-2.1-7.7H100z M99.5,35.7l1.1-3.7h0l1,3.7H99.5z"/>
	<polygon class="st0" points="109.8,37 109.8,37 108.2,30.9 106.6,30.9 106.6,38.6 107.6,38.6 107.6,31.9 107.6,31.9 109.3,38.6 
		110.2,38.6 112,31.9 112,31.9 112,38.6 112.9,38.6 112.9,30.9 111.3,30.9 	"/>
	<polygon class="st0" points="117.7,35 120.5,35 120.5,34.2 117.7,34.2 117.7,31.7 120.7,31.7 120.7,30.9 116.7,30.9 116.7,38.6 
		120.8,38.6 120.8,37.8 117.7,37.8 	"/>
	<path class="st0" d="M128.7,37.4l-0.1-1.3c0-0.7-0.4-1.2-1.1-1.3v0c0.9-0.2,1.2-1.1,1.2-1.9c0-1.2-0.8-1.9-2-1.9h-2.5v7.7h1v-3.4
		h1.3c0.5,0,1.1,0.1,1.1,1.1l0.1,1.2c0,0.4,0.1,1,0.3,1.1h1.1C128.9,38.5,128.7,38.3,128.7,37.4z M126.1,34.4h-0.9v-2.7h1.1
		c0.9,0,1.4,0.5,1.4,1.2C127.7,34.4,126.7,34.4,126.1,34.4z"/>
	<path class="st0" d="M134.3,30.9l-2.2,7.7h1l0.6-2.1h2.5l0.6,2.1h1l-2.1-7.7H134.3z M133.9,35.7l1.1-3.7h0l1,3.7H133.9z"/>
	<path class="st0" d="M146.6,32.8c0-0.8,0.5-1.3,1.3-1.3c0.9,0,1.2,0.6,1.2,1.4h1c0-1.4-0.7-2.2-2.2-2.2c-2,0-2.3,1.4-2.3,2.1
		c0,2.8,3.7,1.6,3.7,3.8c0,0.8-0.6,1.4-1.3,1.4c-1.4,0-1.5-0.9-1.5-1.8h-1c0,1.6,0.5,2.6,2.3,2.6c1.1,0,2.4-0.5,2.4-2.3
		C150.3,33.7,146.6,35,146.6,32.8z"/>
	<polygon class="st0" points="153.2,31.7 155.2,31.7 155.2,38.6 156.1,38.6 156.1,31.7 158.1,31.7 158.1,30.9 153.2,30.9 	"/>
	<path class="st0" d="M163.6,30.7c-2.1,0-2.5,2.1-2.5,4c0,1.9,0.4,4,2.5,4c2.1,0,2.5-2.1,2.5-4C166.1,32.8,165.7,30.7,163.6,30.7z
		 M163.6,38c-1.3,0-1.5-1.5-1.5-3.2c0-1.8,0.2-3.2,1.5-3.2c1.3,0,1.5,1.5,1.5,3.2C165.1,36.5,164.9,38,163.6,38z"/>
	<path class="st0" d="M174.1,37.4l-0.1-1.3c0-0.7-0.4-1.2-1.1-1.3v0c0.9-0.2,1.2-1.1,1.2-1.9c0-1.2-0.8-1.9-2-1.9h-2.5v7.7h1v-3.4
		h1.3c0.5,0,1.1,0.1,1.1,1.1l0.1,1.2c0,0.4,0.1,1,0.3,1.1h1.1C174.3,38.5,174.2,38.3,174.1,37.4z M171.6,34.4h-0.9v-2.7h1.1
		c0.9,0,1.4,0.5,1.4,1.2C173.2,34.4,172.2,34.4,171.6,34.4z"/>
	<polygon class="st0" points="178.9,35 181.7,35 181.7,34.2 178.9,34.2 178.9,31.7 181.9,31.7 181.9,30.9 177.9,30.9 177.9,38.6 
		182,38.6 182,37.8 178.9,37.8 	"/>
</g>
</svg>
